<svg xmlns="http://www.w3.org/2000/svg" height="800" width="1200" viewBox="-113.9982 -24.80325 987.9844 148.8195"><path d="M44.674 99.213c-6.67 0-12.744-1.096-18.226-3.288-5.481-2.193-10.188-5.413-14.114-9.661-3.93-4.248-6.968-9.432-9.113-15.554C1.073 64.591 0 57.555 0 49.606c0-7.948 1.187-15.005 3.563-21.172 2.374-6.166 5.618-11.35 9.729-15.553 4.111-4.201 8.86-7.4 14.252-9.594C32.934 1.097 38.645 0 44.674 0c4.111 0 7.788.273 11.031.822 3.242.548 6.051 1.188 8.428 1.918 2.374.732 4.293 1.463 5.755 2.193 1.461.732 2.467 1.279 3.016 1.644l-3.975 10.964c-.822-.549-2.01-1.142-3.562-1.782-1.555-.638-3.357-1.278-5.413-1.919-2.056-.637-4.316-1.164-6.783-1.576-2.466-.41-5.07-.616-7.811-.616-4.659 0-8.907.87-12.744 2.604-3.838 1.737-7.126 4.248-9.867 7.537-2.74 3.29-4.864 7.287-6.372 11.991-1.507 4.706-2.261 9.982-2.261 15.827 0 5.666.662 10.827 1.987 15.486 1.322 4.659 3.333 8.656 6.029 11.99 2.693 3.336 6.029 5.916 10.003 7.743 3.975 1.828 8.655 2.74 14.047 2.74 6.029 0 11.031-.639 15.005-1.919 3.975-1.278 6.965-2.419 8.976-3.426l3.426 10.963c-.64.458-1.781 1.028-3.426 1.713-1.645.685-3.7 1.35-6.167 1.986-2.466.639-5.344 1.187-8.633 1.646-3.289.456-6.852.684-10.689.684zm84.412-97.02a565.9546 565.9546 0 019.456 20.761c3.015 6.988 6.051 14.319 9.112 21.993 3.06 7.674 6.188 15.784 9.388 24.324 3.196 8.544 6.622 17.839 10.277 27.887h-14.526c-1.555-4.11-3.015-8.175-4.385-12.195-1.371-4.02-2.788-8.085-4.248-12.196h-43.029l-8.633 24.392H78.657c3.653-10.048 7.079-19.343 10.277-27.887 3.197-8.54 6.325-16.649 9.388-24.324 3.06-7.674 6.098-15.005 9.112-21.993 3.015-6.99 6.167-13.909 9.455-20.761h12.197zm-6.44 15.21c-3.199 6.852-6.234 13.978-9.113 21.378-2.877 7.399-5.733 15.122-8.564 23.159h35.355c-2.925-7.947-5.824-15.644-8.702-23.091-2.879-7.445-5.872-14.594-8.976-21.446zm123.193 79.755c-2.011-3.379-4.316-7.171-6.92-11.374-2.604-4.201-5.413-8.564-8.429-13.087-3.015-4.521-6.144-9.112-9.387-13.771-3.243-4.66-6.463-9.16-9.661-13.499-3.198-4.339-6.303-8.429-9.317-12.266-3.014-3.837-5.804-7.216-8.359-10.141v74.136h-13.018V2.193h10.551c4.294 4.568 8.884 9.889 13.772 15.964 4.886 6.076 9.729 12.333 14.525 18.773 4.796 6.44 9.318 12.768 13.566 18.98 4.248 6.214 7.833 11.74 10.758 16.581V2.193h13.018v94.964h-11.099zm207.47 0c-2.012-3.379-4.316-7.171-6.92-11.374-2.604-4.201-5.414-8.564-8.428-13.087-3.016-4.521-6.145-9.112-9.387-13.771-3.244-4.66-6.465-9.16-9.662-13.499-3.197-4.339-6.303-8.429-9.318-12.266-3.014-3.837-5.803-7.216-8.359-10.141v74.136h-13.018V2.193h10.551c4.295 4.568 8.885 9.889 13.773 15.964 4.887 6.076 9.729 12.333 14.525 18.773 4.796 6.44 9.318 12.768 13.566 18.98 4.248 6.214 7.832 11.74 10.758 16.581V2.193h13.018v94.964h-11.099zm35.216-94.965h13.293v94.964h-13.293zm78.246 97.02c-6.67 0-12.744-1.096-18.227-3.288-5.48-2.193-10.188-5.413-14.113-9.661-3.93-4.248-6.969-9.432-9.113-15.554-2.146-6.119-3.221-13.155-3.221-21.104 0-7.948 1.188-15.005 3.562-21.172 2.375-6.166 5.619-11.35 9.73-15.553 4.111-4.201 8.861-7.4 14.252-9.594C555.031 1.097 560.742 0 566.771 0c4.111 0 7.787.273 11.031.822 3.242.548 6.051 1.188 8.428 1.918 2.375.732 4.293 1.463 5.756 2.193 1.459.732 2.467 1.279 3.014 1.644l-3.973 10.964c-.822-.549-2.012-1.142-3.564-1.782-1.555-.638-3.357-1.278-5.412-1.919-2.055-.637-4.316-1.164-6.783-1.576-2.467-.41-5.07-.616-7.811-.616-4.658 0-8.908.87-12.744 2.604-3.838 1.737-7.125 4.248-9.867 7.537-2.74 3.29-4.865 7.287-6.371 11.991-1.508 4.706-2.262 9.982-2.262 15.827 0 5.666.662 10.827 1.986 15.486 1.324 4.659 3.334 8.656 6.029 11.99 2.693 3.336 6.029 5.916 10.004 7.743 3.975 1.828 8.656 2.74 14.047 2.74 6.029 0 11.031-.639 15.006-1.919 3.973-1.278 6.965-2.419 8.975-3.426l3.426 10.963c-.641.458-1.781 1.028-3.426 1.713-1.645.685-3.699 1.35-6.166 1.986-2.467.639-5.344 1.187-8.633 1.646-3.289.456-6.852.684-10.69.684zm84.413-97.02a567.6591 567.6591 0 019.457 20.761c3.014 6.988 6.051 14.319 9.111 21.993 3.061 7.674 6.189 15.784 9.389 24.324 3.195 8.544 6.621 17.839 10.277 27.887h-14.527a392.321 392.321 0 01-4.385-12.195c-1.371-4.02-2.787-8.085-4.248-12.196H623.23l-8.635 24.392h-13.84c3.652-10.048 7.078-19.343 10.277-27.887 3.197-8.54 6.326-16.649 9.387-24.324 3.061-7.674 6.098-15.005 9.113-21.993 3.014-6.99 6.166-13.909 9.455-20.761h12.197zm-6.44 15.21c-3.199 6.852-6.236 13.978-9.113 21.378-2.877 7.399-5.734 15.122-8.564 23.159h35.355c-2.926-7.947-5.824-15.644-8.703-23.091-2.877-7.445-5.871-14.594-8.975-21.446zm115.244 68.655v11.1h-57.143V2.193h13.293v83.865zM322.58 81.194c-17.445 0-31.587-14.138-31.587-31.587 0-17.446 14.142-31.586 31.587-31.586 17.446 0 31.587 14.14 31.587 31.586 0 17.449-14.141 31.587-31.587 31.587z" fill="#772953"/><path d="M372.186 49.608c0 27.396-22.21 49.605-49.606 49.605-27.398 0-49.606-22.21-49.606-49.605 0-27.397 22.208-49.606 49.606-49.606 27.396-.001 49.606 22.208 49.606 49.606zm-49.607-37.54c-20.734 0-37.539 16.808-37.539 37.54 0 20.735 16.805 37.538 37.539 37.538s37.539-16.803 37.539-37.538c0-20.733-16.805-37.54-37.539-37.54z" fill="#772953"/></svg>